<?xml version="1.0" encoding="UTF-8"?>
<svg xmlns="http://www.w3.org/2000/svg" width="1080" height="1080" viewBox="0 0 1080 1080">
  <defs>
    <linearGradient id="bg3" x1="0" y1="0" x2="1" y2="1">
      <stop offset="0" stop-color="#0c0d0d"/>
      <stop offset="0.64" stop-color="#12110f"/>
      <stop offset="1" stop-color="#060707"/>
    </linearGradient>
    <radialGradient id="glow3" cx="78%" cy="14%" r="74%">
      <stop offset="0" stop-color="#FF7A59" stop-opacity="0.20"/>
      <stop offset="0.42" stop-color="#FF7A59" stop-opacity="0.05"/>
      <stop offset="1" stop-color="#FF7A59" stop-opacity="0"/>
    </radialGradient>
  </defs>
  <rect width="1080" height="1080" fill="url(#bg3)"/>
  <rect width="1080" height="1080" fill="url(#glow3)"/>
  <line x1="88" y1="158" x2="88" y2="920" stroke="rgba(255,255,255,.035)"/>
<line x1="222" y1="158" x2="222" y2="920" stroke="rgba(255,255,255,.035)"/>
<line x1="356" y1="158" x2="356" y2="920" stroke="rgba(255,255,255,.035)"/>
<line x1="490" y1="158" x2="490" y2="920" stroke="rgba(255,255,255,.035)"/>
<line x1="624" y1="158" x2="624" y2="920" stroke="rgba(255,255,255,.035)"/>
<line x1="758" y1="158" x2="758" y2="920" stroke="rgba(255,255,255,.035)"/>
<line x1="892" y1="158" x2="892" y2="920" stroke="rgba(255,255,255,.035)"/><line x1="88" y1="220" x2="992" y2="220" stroke="rgba(255,255,255,.032)"/>
<line x1="88" y1="338" x2="992" y2="338" stroke="rgba(255,255,255,.032)"/>
<line x1="88" y1="456" x2="992" y2="456" stroke="rgba(255,255,255,.032)"/>
<line x1="88" y1="574" x2="992" y2="574" stroke="rgba(255,255,255,.032)"/>
<line x1="88" y1="692" x2="992" y2="692" stroke="rgba(255,255,255,.032)"/>
<line x1="88" y1="810" x2="992" y2="810" stroke="rgba(255,255,255,.032)"/>
  <path d="M768 112 L1006 265" stroke="#FF7A59" stroke-width="8" opacity=".22"/>
  <path d="M88 898 C380 828 672 793 992 704" stroke="#FF7A59" stroke-width="2" opacity=".40" fill="none"/>
  <rect x="48" y="46" width="984" height="988" rx="34" fill="none" stroke="rgba(255,255,255,.14)" stroke-width="2"/>
  
    <text x="88" y="74" fill="#f4f1ea" font-family="Arial, Helvetica, sans-serif" font-size="25" font-weight="900">HEStats Intelligence</text>
    <text x="992" y="74" fill="#9b958b" font-family="Arial, Helvetica, sans-serif" font-size="20" font-weight="800" text-anchor="end">03/14</text>
    <rect x="88" y="102" width="232.79999999999998" height="38" rx="19" fill="#FF7A5918" stroke="#FF7A5980"/>
    <text x="109" y="127" fill="#FF7A59" font-family="Arial, Helvetica, sans-serif" font-size="17" font-weight="900">AI JOB RISK CAVEAT</text>
  
  <text x="88" y="188" fill="#f8f4ec" font-family="Arial, Helvetica, sans-serif" font-size="54" font-weight="900" text-anchor="start">The job-loss signal is smaller</text>
<text x="88" y="246.3" fill="#f8f4ec" font-family="Arial, Helvetica, sans-serif" font-size="54" font-weight="900" text-anchor="start">than the hype</text>
  
      <rect x="88" y="314" width="470" height="188" rx="26" fill="rgba(255,255,255,.07)" stroke="rgba(255,255,255,.14)"/>
      <rect x="88" y="314" width="8" height="188" rx="4" fill="#FF7A59"/>
      <text x="122" y="402" fill="#FF7A59" font-family="Arial, Helvetica, sans-serif" font-size="126" font-weight="900">5%</text>
      <text x="124" y="444" fill="#f3efe7" font-family="Arial, Helvetica, sans-serif" font-size="24" font-weight="800" text-anchor="start">of AI-using businesses</text>
<text x="124" y="469.9" fill="#f3efe7" font-family="Arial, Helvetica, sans-serif" font-size="24" font-weight="800" text-anchor="start">reported headcount reduction</text>
    
  <text x="88" y="560" fill="#e6dfd4" font-family="Arial, Helvetica, sans-serif" font-size="29" font-weight="700" text-anchor="start">The sharper story is task change: AI is entering</text>
<text x="88" y="596" fill="#e6dfd4" font-family="Arial, Helvetica, sans-serif" font-size="29" font-weight="700" text-anchor="start">workflows faster than official evidence shows</text>
<text x="88" y="631.9" fill="#e6dfd4" font-family="Arial, Helvetica, sans-serif" font-size="29" font-weight="700" text-anchor="start">mass job loss.</text>
  
  
    <rect x="88" y="944" width="904" height="1" fill="rgba(255,255,255,.18)"/>
    <text x="88" y="974" fill="#b9b2a6" font-family="Arial, Helvetica, sans-serif" font-size="18" font-weight="700" text-anchor="start">Source: ONS BICS Wave 153, 16 to 29 March 2026. HEStats interpretation for social</text>
<text x="88" y="995.2" fill="#b9b2a6" font-family="Arial, Helvetica, sans-serif" font-size="18" font-weight="700" text-anchor="start">framing.</text>
    <text x="992" y="1010" fill="#FF7A59" font-family="Arial, Helvetica, sans-serif" font-size="21" font-weight="900" text-anchor="end">hestats.co.uk</text>
  
</svg>