<?xml version="1.0" encoding="UTF-8"?>
<svg xmlns="http://www.w3.org/2000/svg" width="1080" height="1080" viewBox="0 0 1080 1080">
  <defs>
    <linearGradient id="bg11" x1="0" y1="0" x2="1" y2="1">
      <stop offset="0" stop-color="#0c0d0d"/>
      <stop offset="0.64" stop-color="#12110f"/>
      <stop offset="1" stop-color="#060707"/>
    </linearGradient>
    <radialGradient id="glow11" cx="78%" cy="14%" r="74%">
      <stop offset="0" stop-color="#C4B5FD" stop-opacity="0.20"/>
      <stop offset="0.42" stop-color="#C4B5FD" stop-opacity="0.05"/>
      <stop offset="1" stop-color="#C4B5FD" stop-opacity="0"/>
    </radialGradient>
  </defs>
  <rect width="1080" height="1080" fill="url(#bg11)"/>
  <rect width="1080" height="1080" fill="url(#glow11)"/>
  <line x1="88" y1="158" x2="88" y2="920" stroke="rgba(255,255,255,.035)"/>
<line x1="222" y1="158" x2="222" y2="920" stroke="rgba(255,255,255,.035)"/>
<line x1="356" y1="158" x2="356" y2="920" stroke="rgba(255,255,255,.035)"/>
<line x1="490" y1="158" x2="490" y2="920" stroke="rgba(255,255,255,.035)"/>
<line x1="624" y1="158" x2="624" y2="920" stroke="rgba(255,255,255,.035)"/>
<line x1="758" y1="158" x2="758" y2="920" stroke="rgba(255,255,255,.035)"/>
<line x1="892" y1="158" x2="892" y2="920" stroke="rgba(255,255,255,.035)"/><line x1="88" y1="220" x2="992" y2="220" stroke="rgba(255,255,255,.032)"/>
<line x1="88" y1="338" x2="992" y2="338" stroke="rgba(255,255,255,.032)"/>
<line x1="88" y1="456" x2="992" y2="456" stroke="rgba(255,255,255,.032)"/>
<line x1="88" y1="574" x2="992" y2="574" stroke="rgba(255,255,255,.032)"/>
<line x1="88" y1="692" x2="992" y2="692" stroke="rgba(255,255,255,.032)"/>
<line x1="88" y1="810" x2="992" y2="810" stroke="rgba(255,255,255,.032)"/>
  <path d="M768 112 L1006 265" stroke="#C4B5FD" stroke-width="8" opacity=".22"/>
  <path d="M88 898 C380 828 672 793 992 704" stroke="#C4B5FD" stroke-width="2" opacity=".40" fill="none"/>
  <rect x="48" y="46" width="984" height="988" rx="34" fill="none" stroke="rgba(255,255,255,.14)" stroke-width="2"/>
  
    <text x="88" y="74" fill="#f4f1ea" font-family="Arial, Helvetica, sans-serif" font-size="25" font-weight="900">HEStats Intelligence</text>
    <text x="992" y="74" fill="#9b958b" font-family="Arial, Helvetica, sans-serif" font-size="20" font-weight="800" text-anchor="end">11/14</text>
    <rect x="88" y="102" width="243.4" height="38" rx="19" fill="#C4B5FD18" stroke="#C4B5FD80"/>
    <text x="109" y="127" fill="#C4B5FD" font-family="Arial, Helvetica, sans-serif" font-size="17" font-weight="900">DEGREE INTELLIGENCE</text>
  
  <text x="88" y="188" fill="#f8f4ec" font-family="Arial, Helvetica, sans-serif" font-size="54" font-weight="900" text-anchor="start">Big-volume degree risk:</text>
<text x="88" y="246.3" fill="#f8f4ec" font-family="Arial, Helvetica, sans-serif" font-size="54" font-weight="900" text-anchor="start">business and management</text>
  
      <rect x="88" y="314" width="470" height="188" rx="26" fill="rgba(255,255,255,.07)" stroke="rgba(255,255,255,.14)"/>
      <rect x="88" y="314" width="8" height="188" rx="4" fill="#C4B5FD"/>
      <text x="122" y="402" fill="#C4B5FD" font-family="Arial, Helvetica, sans-serif" font-size="104" font-weight="900">37,885</text>
      <text x="124" y="444" fill="#f3efe7" font-family="Arial, Helvetica, sans-serif" font-size="24" font-weight="800" text-anchor="start">annual graduations</text>
    
  <text x="88" y="560" fill="#e6dfd4" font-family="Arial, Helvetica, sans-serif" font-size="29" font-weight="700" text-anchor="start">Employment: 86.2%. Average salary: £26k. HEStats</text>
<text x="88" y="596" fill="#e6dfd4" font-family="Arial, Helvetica, sans-serif" font-size="29" font-weight="700" text-anchor="start">AI automation risk: 46%.</text>
  
      <rect x="88" y="762" width="272" height="118" rx="20" fill="rgba(255,255,255,.075)" stroke="rgba(255,255,255,.13)"/>
      <text x="112" y="810" fill="#C4B5FD" font-family="Arial, Helvetica, sans-serif" font-size="31" font-weight="900">46%</text>
      <text x="112" y="844" fill="#efe9df" font-family="Arial, Helvetica, sans-serif" font-size="18" font-weight="800" text-anchor="start">AI risk</text>
    

      <rect x="388" y="762" width="272" height="118" rx="20" fill="rgba(255,255,255,.075)" stroke="rgba(255,255,255,.13)"/>
      <text x="412" y="810" fill="#C4B5FD" font-family="Arial, Helvetica, sans-serif" font-size="31" font-weight="900">£26k</text>
      <text x="412" y="844" fill="#efe9df" font-family="Arial, Helvetica, sans-serif" font-size="18" font-weight="800" text-anchor="start">avg salary</text>
    

      <rect x="688" y="762" width="272" height="118" rx="20" fill="rgba(255,255,255,.075)" stroke="rgba(255,255,255,.13)"/>
      <text x="712" y="810" fill="#C4B5FD" font-family="Arial, Helvetica, sans-serif" font-size="31" font-weight="900">86.2%</text>
      <text x="712" y="844" fill="#efe9df" font-family="Arial, Helvetica, sans-serif" font-size="18" font-weight="800" text-anchor="start">employment</text>
    
  
    <rect x="88" y="944" width="904" height="1" fill="rgba(255,255,255,.18)"/>
    <text x="88" y="974" fill="#b9b2a6" font-family="Arial, Helvetica, sans-serif" font-size="18" font-weight="700" text-anchor="start">Source: DfE LEO degree data + HEStats AI automation risk model.</text>
    <text x="992" y="1010" fill="#C4B5FD" font-family="Arial, Helvetica, sans-serif" font-size="21" font-weight="900" text-anchor="end">hestats.co.uk</text>
  
</svg>